<?xml version="1.0" standalone="no"?>
<!DOCTYPE svg PUBLIC "-//W3C//DTD SVG 20010904//EN"
 "http://www.w3.org/TR/2001/REC-SVG-20010904/DTD/svg10.dtd">
<svg version="1.0" xmlns="http://www.w3.org/2000/svg"
 width="1024.000000pt" height="1024.000000pt" viewBox="0 0 1024.000000 1024.000000"
 preserveAspectRatio="xMidYMid meet">

<g transform="translate(0.000000,1024.000000) scale(0.100000,-0.100000)"
fill="#000000" stroke="none">
<path d="M0 5120 l0 -5120 5120 0 5120 0 0 5120 0 5120 -5120 0 -5120 0 0
-5120z m8136 4353 c-3 -10 -10 -38 -15 -63 -17 -77 -126 -389 -177 -505 -26
-60 -88 -188 -136 -284 -49 -95 -88 -175 -86 -176 12 -11 625 356 699 417 58
49 60 50 53 22 -14 -59 -169 -465 -234 -614 -50 -115 -126 -264 -191 -376 -33
-55 -59 -104 -59 -107 0 -11 80 22 174 71 57 29 113 69 150 104 33 32 61 56
63 54 4 -3 -35 -201 -52 -267 -6 -26 -6 -26 102 -49 238 -50 373 -101 570
-218 329 -194 549 -456 646 -767 99 -316 31 -760 -181 -1180 -105 -210 -273
-470 -415 -643 l-85 -104 57 -56 c90 -91 299 -344 384 -465 73 -104 214 -330
285 -458 17 -30 48 -104 68 -165 67 -197 57 -341 -30 -478 -91 -142 -320 -268
-599 -328 -90 -19 -132 -22 -362 -22 -292 -1 -460 14 -514 45 l-34 20 6 -73
c4 -40 11 -129 18 -198 11 -130 7 -285 -13 -430 -11 -82 -10 -87 17 -160 23
-63 29 -95 33 -199 5 -148 -5 -206 -58 -316 -53 -109 -130 -207 -203 -259 -74
-53 -203 -118 -272 -137 -63 -18 -213 -17 -285 0 -119 29 -269 116 -340 197
-76 87 -141 221 -162 334 l-11 58 -96 27 c-140 39 -469 150 -537 180 -32 15
-104 43 -158 62 -131 46 -182 72 -231 121 -28 26 -59 45 -95 55 -30 9 -93 37
-140 61 -47 25 -147 78 -224 116 -140 72 -246 137 -246 150 0 8 -122 -22 -225
-54 -85 -26 -390 -95 -585 -132 -208 -40 -335 -55 -660 -79 -303 -22 -644 -9
-1035 41 -229 29 -295 41 -490 91 -77 20 -150 37 -162 37 -13 1 -23 4 -23 8 0
3 -30 16 -68 29 -117 38 -256 96 -404 168 -662 321 -988 723 -1015 1252 -8
161 8 285 57 453 125 424 393 864 758 1246 44 46 78 89 74 95 -3 5 -31 44 -61
85 -78 105 -272 409 -368 575 -86 148 -172 329 -201 421 -15 52 -20 57 -77 87
-89 46 -211 173 -258 267 -173 347 4 789 363 905 68 22 241 26 320 6 30 -7 92
-31 137 -52 63 -30 92 -51 125 -91 24 -28 57 -66 73 -85 l30 -33 125 -5 c123
-4 276 -27 292 -43 5 -5 3 -9 -4 -9 -196 -10 -343 -24 -352 -34 -8 -9 2 -10
44 -5 138 16 316 18 415 6 l104 -14 34 -75 c82 -179 97 -214 97 -220 0 -3 -62
-7 -138 -7 -97 -1 -166 -8 -237 -23 -146 -31 -260 -68 -294 -97 -16 -13 -46
-58 -65 -99 -20 -42 -53 -94 -74 -118 -54 -58 -65 -82 -47 -97 8 -6 40 -55 71
-108 31 -53 87 -140 124 -192 37 -52 108 -157 159 -233 51 -75 96 -135 100
-133 5 3 11 31 15 63 9 73 73 269 119 360 47 93 138 212 233 304 75 73 322
283 358 304 16 9 16 19 6 99 -22 176 -11 345 20 296 7 -11 15 0 35 44 44 100
139 228 248 332 181 176 453 391 613 487 l48 28 -73 35 c-40 20 -111 50 -159
69 -48 18 -123 49 -167 69 -44 20 -85 36 -92 36 -22 0 -24 19 -4 57 11 22 20
31 21 21 0 -22 63 -59 176 -104 97 -39 227 -103 286 -140 48 -30 51 -30 102 5
57 40 346 175 521 244 77 30 208 76 290 102 227 70 364 121 540 201 188 86
179 92 141 -86 -13 -63 -24 -116 -23 -116 12 -10 587 115 797 172 182 50 544
186 605 228 22 15 41 23 43 18 4 -12 -35 -143 -81 -274 -24 -68 -30 -98 -22
-98 7 0 47 17 89 38 42 21 76 37 76 36 0 -9 -84 -201 -93 -212 -17 -21 -1 -24
54 -8 30 8 92 22 139 31 193 38 502 150 775 279 257 123 605 329 605 358 0 5
5 8 11 8 6 0 8 -8 5 -17z m-5333 -102 c122 -32 183 -73 243 -166 62 -98 93
-270 63 -355 -5 -16 -6 3 -3 52 3 43 2 83 -2 90 -5 7 -18 41 -30 76 -24 68
-70 145 -108 181 -62 58 -279 98 -364 67 -60 -22 -148 -82 -179 -123 -46 -59
-73 -156 -73 -259 0 -117 18 -169 82 -239 72 -79 165 -123 287 -135 52 -6 97
-12 99 -15 3 -3 0 -5 -6 -5 -7 0 -12 -6 -12 -14 0 -15 -27 -30 -47 -27 -7 1
-13 -3 -13 -9 0 -6 -26 -10 -62 -10 -63 0 -63 0 -138 65 -185 160 -243 233
-242 305 1 52 -17 52 -95 1 -123 -83 -178 -192 -198 -391 -12 -116 36 -445 95
-657 27 -100 27 -113 -4 -83 -37 34 -60 91 -105 256 -57 210 -71 305 -72 475
0 168 15 248 63 347 51 104 153 185 258 207 56 11 77 29 84 74 25 161 107 246
278 291 93 24 109 24 201 1z m64 -168 c85 -71 113 -145 73 -195 -83 -107 -300
-11 -300 132 0 84 34 113 127 107 44 -3 61 -10 100 -44z m-383 -1859 c3 -8 2
-12 -4 -9 -6 3 -10 10 -10 16 0 14 7 11 14 -7z m1799 -5180 c90 -120 420 -412
587 -520 81 -52 226 -117 311 -139 31 -8 95 -15 142 -15 149 0 257 48 362 162
31 33 54 54 53 46 -2 -7 -10 -20 -18 -28 -9 -8 -27 -31 -40 -50 -71 -102 -139
-143 -266 -161 -161 -23 -328 6 -474 82 -139 72 -432 307 -566 455 -44 48 -90
99 -104 113 -67 68 -71 75 -57 104 6 14 15 23 18 19 3 -4 26 -34 52 -68z
m2007 -298 c0 -67 -134 -289 -308 -511 -88 -112 -279 -297 -362 -350 -184
-118 -388 -170 -571 -145 -226 30 -476 160 -699 362 -205 185 -512 526 -545
604 -13 32 -14 40 -2 52 12 12 24 5 84 -46 38 -33 140 -137 227 -232 284 -308
535 -504 741 -579 280 -101 503 -72 766 102 159 105 285 226 466 449 99 122
142 194 158 262 7 30 16 59 20 65 11 19 25 1 25 -33z"/>
<path d="M7866 9174 c-190 -112 -615 -305 -821 -372 -275 -90 -541 -151 -729
-168 -74 -6 -79 -6 -73 12 4 11 16 48 27 84 12 36 45 139 74 230 30 91 53 166
52 167 -1 2 -59 -22 -129 -52 -192 -83 -453 -157 -777 -219 -397 -77 -535
-103 -537 -102 -1 1 16 54 38 120 22 65 38 120 35 123 -2 2 -27 -7 -54 -21
-78 -40 -178 -77 -408 -154 -461 -154 -746 -287 -1082 -506 -249 -161 -528
-405 -635 -554 -86 -120 -109 -183 -115 -319 -3 -88 -1 -123 13 -167 10 -30
15 -61 12 -69 -3 -8 -31 -31 -64 -52 -196 -130 -391 -305 -497 -445 -184 -245
-258 -663 -167 -950 39 -121 116 -275 186 -365 57 -74 226 -245 242 -245 6 0
13 50 16 113 7 135 31 275 57 334 14 33 28 48 57 60 77 31 585 143 663 145
141 3 219 -41 239 -133 15 -70 14 -213 -3 -301 -60 -313 -363 -731 -709 -978
-26 -18 -44 -37 -40 -41 13 -13 373 8 426 24 26 8 47 11 47 7 0 -5 -50 -55
-112 -112 -61 -57 -132 -125 -157 -153 -25 -27 -94 -99 -154 -160 -59 -60
-103 -111 -99 -113 13 -4 323 74 367 92 50 21 50 21 22 -16 -13 -18 -48 -78
-77 -133 -29 -55 -73 -130 -98 -168 -25 -37 -43 -70 -40 -72 3 -3 34 3 69 14
35 11 125 35 199 55 230 59 415 133 558 224 30 18 58 32 63 30 5 -2 -13 -39
-39 -83 -27 -44 -72 -124 -100 -178 -29 -54 -92 -159 -141 -233 -49 -74 -86
-132 -82 -130 4 3 76 23 161 45 212 54 508 160 665 236 150 73 373 217 466
301 35 32 75 67 88 79 23 20 -145 -327 -240 -494 -35 -61 -39 -73 -23 -68 133
40 440 160 554 215 168 81 382 206 469 274 34 27 93 88 132 138 93 117 104
119 70 11 -14 -45 -16 -61 -7 -61 20 0 290 182 395 267 53 43 170 152 261 243
177 176 309 341 376 470 51 99 117 166 165 168 55 2 90 19 142 70 91 89 237
322 345 552 37 79 57 107 117 165 105 102 195 265 299 540 l23 60 -126 0
c-115 1 -134 4 -226 34 -55 18 -113 40 -129 48 l-28 15 38 25 c71 47 201 162
296 262 189 196 452 638 523 879 9 32 -3 28 -86 -26 -191 -125 -337 -201 -472
-248 l-68 -23 46 57 c125 155 249 328 305 424 102 176 325 687 307 704 -2 3
-18 -7 -35 -21 -53 -44 -284 -179 -446 -259 -144 -72 -318 -141 -337 -134 -5
2 19 41 52 88 93 130 214 338 297 510 78 164 175 397 170 410 -2 5 -30 -7 -62
-26z m-1857 -380 c-7 -9 -47 -39 -89 -67 -41 -28 -111 -75 -155 -105 -44 -29
-116 -72 -160 -93 -44 -22 -91 -49 -105 -60 l-25 -20 35 4 c36 5 281 67 430
110 47 13 105 27 130 30 42 5 43 5 15 -6 -16 -6 -104 -48 -195 -92 -91 -45
-193 -92 -228 -105 -34 -12 -61 -25 -58 -27 2 -2 50 5 107 17 57 11 226 32
374 46 317 29 475 48 559 68 34 8 117 27 186 42 69 14 170 40 225 56 110 32
324 120 368 151 16 10 30 17 33 15 5 -5 -38 -113 -73 -183 -118 -233 -389
-498 -638 -623 -86 -43 -231 -92 -271 -92 -13 0 -24 -4 -24 -9 0 -18 393 -4
547 18 218 33 570 143 709 222 28 16 54 29 56 29 15 0 -150 -309 -202 -379
-156 -211 -386 -399 -565 -461 -85 -30 -217 -58 -310 -66 -44 -3 -81 -7 -83
-9 -1 -1 31 -10 70 -19 107 -26 343 -54 418 -50 155 9 229 17 290 31 36 8 72
16 81 18 47 10 210 70 247 91 24 14 45 24 47 22 9 -9 -93 -170 -159 -252 -167
-207 -324 -330 -519 -405 -87 -33 -100 -35 -232 -39 -104 -3 -158 0 -208 12
-102 24 -109 19 -32 -20 38 -19 72 -38 75 -42 9 -13 94 -79 118 -91 12 -7 52
-14 88 -17 36 -2 82 -13 102 -23 21 -10 89 -37 152 -59 63 -22 134 -48 158
-57 66 -27 55 -62 -36 -111 l-52 -28 0 -56 c0 -233 -7 -293 -48 -441 -40 -144
-123 -352 -174 -437 l-25 -43 0 138 c0 160 -21 261 -76 352 -53 90 -352 381
-390 381 -2 0 18 -43 45 -96 62 -120 86 -227 94 -424 7 -170 -8 -276 -61 -437
-77 -230 -212 -438 -414 -638 -45 -44 -81 -77 -81 -75 0 3 7 27 15 54 40 133
63 447 41 589 -28 188 -83 372 -157 519 -33 66 -62 118 -64 116 -2 -2 5 -36
15 -77 33 -124 43 -235 37 -406 -6 -184 -23 -284 -73 -428 -133 -387 -381
-695 -759 -942 -133 -87 -185 -118 -185 -112 0 3 22 49 49 103 108 215 192
481 235 744 8 52 18 111 21 130 3 19 8 107 12 195 6 180 -13 378 -49 494 -22
71 -94 224 -130 274 l-23 32 35 -25 c111 -77 202 -175 250 -270 13 -25 38 -88
57 -140 l34 -95 -6 121 c-7 154 -21 201 -94 311 -90 135 -159 191 -351 281
-131 62 -109 73 56 25 183 -52 455 -195 550 -289 l52 -52 -18 59 c-32 104
-121 228 -205 283 -30 21 -109 59 -176 87 -135 55 -356 105 -516 116 -51 3
-93 9 -93 13 0 3 34 14 75 24 130 31 275 147 275 221 0 49 -21 93 -66 139 -81
83 -194 111 -502 125 -132 6 -225 15 -257 25 -61 19 -159 76 -200 117 l-30 30
50 -21 c77 -33 168 -50 310 -56 93 -4 126 -3 115 5 -8 6 -22 11 -30 11 -35 0
-162 72 -211 119 -29 28 -50 53 -47 56 3 3 27 -7 53 -24 99 -63 341 -92 468
-57 158 44 282 153 340 300 16 42 20 72 18 162 l-2 112 52 37 c81 58 170 100
298 140 64 20 161 52 216 71 56 19 151 44 213 54 61 11 132 28 156 38 44 17
39 17 -232 14 -153 -1 -313 -7 -357 -12 -372 -48 -460 -69 -644 -150 -40 -17
-75 -29 -78 -26 -16 16 123 194 172 221 34 18 48 45 23 45 -26 -1 -193 -97
-190 -110 2 -8 -3 -10 -13 -6 -9 3 -14 2 -11 -3 3 -4 -18 -28 -47 -52 -28 -24
-135 -125 -237 -225 -286 -279 -433 -365 -652 -381 -160 -11 -262 31 -334 139
-91 136 -78 367 29 517 51 71 53 77 21 54 -98 -71 -215 -223 -251 -324 -10
-27 -21 -49 -26 -49 -4 0 -14 15 -22 33 -8 17 -14 28 -15 23 0 -5 -2 -7 -5 -4
-3 3 2 21 10 41 43 104 -11 67 -82 -55 -72 -123 -77 -122 -71 4 4 98 8 114 41
180 45 92 151 207 311 341 357 295 787 532 1292 712 67 24 136 51 154 60 17 9
34 15 36 13 9 -10 -95 -150 -159 -215 l-71 -72 80 30 c130 49 309 98 469 129
604 117 677 133 910 199 17 5 32 9 34 10 2 1 -3 -6 -10 -15z m-1407 -1415 c25
-13 51 -74 43 -100 -7 -22 -54 -49 -84 -49 -26 0 -61 46 -61 80 0 19 10 37 31
54 34 29 42 31 71 15z m-1451 -260 c16 -11 39 -39 50 -61 33 -65 109 -133 197
-177 66 -33 89 -51 126 -99 91 -119 213 -203 342 -237 100 -26 342 -63 489
-75 222 -18 306 -30 365 -53 75 -30 78 -54 13 -101 -69 -51 -289 -117 -443
-132 -30 -3 -68 -10 -84 -15 -39 -12 -49 -11 -43 4 3 8 1 20 -4 28 -6 10 -9 7
-9 -11 0 -24 -4 -26 -82 -39 -91 -14 -103 -16 -198 -26 -36 -4 -90 -14 -120
-22 -30 -8 -64 -16 -75 -18 -11 -2 -31 -7 -45 -10 -14 -3 -81 -17 -150 -30
-143 -28 -586 -136 -672 -164 -32 -10 -58 -15 -58 -11 0 13 178 95 289 134
296 103 659 191 1016 246 351 55 520 85 558 99 39 15 34 39 -9 47 -60 11 -502
-10 -514 -25 -3 -3 -14 -7 -25 -8 -68 -6 -145 -16 -300 -39 -235 -35 -493
-106 -860 -239 -347 -125 -495 -263 -542 -504 l-17 -84 -26 31 c-86 104 -160
339 -160 512 0 147 49 340 123 484 50 97 180 237 337 363 272 219 444 294 531
232z m1648 -1424 c12 -16 68 -77 124 -135 165 -170 218 -294 218 -513 0 -159
-31 -284 -115 -462 -136 -288 -411 -593 -713 -791 -136 -89 -180 -112 -327
-168 -63 -25 -129 -52 -146 -61 -36 -19 -36 -20 20 65 144 216 365 627 456
847 59 141 130 359 159 488 24 105 28 142 29 292 1 188 2 188 49 62 61 -161
84 -336 67 -504 -13 -128 -29 -195 -70 -296 -16 -40 -23 -66 -15 -58 13 13 86
139 127 219 37 73 117 311 144 431 25 108 29 144 29 279 0 137 -3 163 -24 225
-13 39 -30 84 -39 100 -16 33 -8 27 27 -20z m-1015 -520 c0 -142 -18 -229 -71
-342 -37 -80 -38 -82 -8 -48 100 116 237 368 266 490 19 82 22 83 32 10 13
-89 -2 -213 -38 -321 -33 -98 -94 -230 -135 -290 -17 -26 -29 -48 -26 -51 2
-2 60 57 129 132 171 187 307 408 376 611 l19 58 8 -39 c13 -63 10 -324 -5
-390 -29 -138 -103 -325 -162 -412 -182 -268 -489 -538 -776 -682 -77 -38
-180 -81 -195 -81 -4 0 11 31 32 69 21 37 73 152 114 255 42 103 91 217 110
254 19 37 54 115 79 172 25 58 54 125 66 150 29 63 26 80 -6 43 -40 -44 -212
-150 -325 -200 -54 -24 -101 -43 -104 -43 -4 0 33 41 81 92 106 111 153 169
220 273 136 210 226 403 247 526 l13 73 29 -90 c27 -80 30 -102 30 -219z"/>
<path d="M5030 7800 c-27 -6 -29 -8 -10 -8 14 -1 43 3 65 7 33 7 35 9 10 9
-16 -1 -46 -4 -65 -8z"/>
<path d="M7370 7785 c-16 -19 -125 -72 -176 -85 l-39 -10 45 5 c25 3 68 17 96
31 56 28 116 73 98 74 -6 0 -17 -7 -24 -15z"/>
<path d="M3621 7383 c-23 -31 -41 -60 -41 -65 0 -11 62 68 79 101 21 39 3 22
-38 -36z"/>
<path d="M3398 7336 c-3 -15 0 -27 8 -30 10 -4 14 3 14 24 0 36 -16 40 -22 6z"/>
<path d="M5090 7250 c-14 -11 -31 -17 -39 -15 -8 3 -11 0 -8 -9 4 -10 1 -13
-10 -9 -11 4 -14 1 -11 -13 5 -30 28 -22 66 24 38 47 39 51 2 22z"/>
<path d="M7165 6989 c-22 -4 -76 -9 -120 -10 -73 -1 -76 -2 -35 -9 59 -11 226
-21 180 -12 l-35 8 45 16 c48 17 31 21 -35 7z"/>
<path d="M5518 4751 c-9 -19 -13 -41 -10 -49 3 -9 10 -3 19 19 19 46 11 74 -9
30z"/>
<path d="M2767 6859 c8 -8 16 -8 30 0 16 9 14 10 -11 11 -22 0 -27 -3 -19 -11z"/>
<path d="M3041 6851 c-11 -7 -11 -9 0 -14 9 -3 7 -6 -6 -6 -19 -1 -19 -1 0
-14 11 -8 43 -20 70 -27 28 -7 57 -19 66 -27 9 -7 19 -10 23 -6 4 5 7 4 6 -2
-5 -21 1 -29 10 -15 8 13 10 12 10 -3 0 -10 10 -37 21 -60 12 -23 21 -43 20
-45 -2 -2 0 -6 3 -9 10 -11 7 19 -10 90 -9 37 -22 67 -28 67 -7 0 -25 13 -40
29 -16 16 -47 34 -71 40 -52 13 -56 13 -74 2z"/>
<path d="M2943 6823 c-53 -5 -56 -23 -15 -79 70 -95 142 -147 262 -187 25 -8
59 -21 77 -28 43 -18 52 -5 20 29 -14 15 -33 47 -42 72 -34 96 -92 150 -161
150 -38 0 -108 31 -92 41 7 5 9 8 3 7 -5 -1 -29 -3 -52 -5z"/>
<path d="M3610 6346 c0 -2 7 -6 15 -10 8 -3 15 -1 15 4 0 6 -7 10 -15 10 -8 0
-15 -2 -15 -4z"/>
<path d="M3778 6343 c6 -2 18 -2 25 0 6 3 1 5 -13 5 -14 0 -19 -2 -12 -5z"/>
<path d="M3553 6327 c0 -9 10 -12 29 -9 15 2 25 8 22 13 -8 14 -51 11 -51 -4z"/>
<path d="M3046 6191 c-4 -5 3 -7 14 -4 23 6 26 13 6 13 -8 0 -17 -4 -20 -9z"/>
<path d="M900 7861 c-92 -30 -142 -61 -215 -135 -114 -115 -162 -242 -151
-398 18 -256 181 -439 427 -479 158 -26 291 22 406 145 119 127 176 271 177
446 1 86 -2 101 -28 155 -59 118 -205 234 -341 270 -79 20 -206 19 -275 -4z
m295 -112 c71 -27 148 -102 186 -183 36 -77 36 -103 0 -153 -102 -142 -266
-151 -399 -23 -117 113 -123 286 -12 363 36 25 153 23 225 -4z"/>
<path d="M8291 7651 c-20 -36 -13 -48 31 -55 80 -13 332 -127 498 -225 235
-139 385 -268 482 -416 177 -272 193 -564 51 -945 -118 -317 -261 -562 -514
-882 -189 -239 -602 -641 -854 -831 -44 -33 -109 -84 -145 -112 -36 -29 -155
-113 -265 -187 -777 -521 -1696 -948 -2625 -1218 -304 -89 -790 -180 -1066
-200 -82 -6 -205 -15 -274 -20 -148 -11 -603 -5 -780 11 -69 6 -186 22 -260
35 -74 14 -171 31 -215 39 -223 40 -659 191 -848 294 -189 103 -394 261 -496
382 -109 130 -197 319 -222 480 -15 99 -6 302 20 404 71 287 354 830 604 1158
33 43 61 76 64 74 2 -3 -19 -41 -46 -87 -63 -104 -222 -426 -249 -505 -77
-225 -104 -332 -115 -463 -24 -282 31 -507 177 -726 74 -110 145 -190 246
-276 114 -96 180 -138 335 -215 213 -105 431 -166 790 -221 155 -24 204 -27
545 -31 378 -5 525 4 815 47 33 5 80 12 105 15 402 52 1128 262 1685 485 372
150 593 252 900 421 83 45 173 94 201 110 183 100 492 300 711 461 415 303
844 723 1105 1083 171 234 296 490 351 719 29 121 32 444 5 543 -39 141 -161
339 -287 463 -87 86 -294 237 -393 286 -29 14 -61 30 -71 35 -16 8 -23 -1 -56
-73 -21 -46 -54 -117 -73 -158 -113 -244 -306 -509 -505 -695 -37 -34 -64 -67
-60 -71 15 -15 198 -8 267 10 36 9 91 30 124 46 33 17 61 30 63 30 28 0 -169
-506 -282 -724 -20 -38 -29 -63 -20 -56 21 17 78 -1 139 -44 122 -85 458 -376
493 -426 13 -19 10 -26 -43 -85 -31 -36 -62 -65 -69 -65 -7 0 -98 88 -204 195
-105 107 -195 195 -199 195 -4 1 -28 20 -54 43 -45 41 -78 103 -78 148 0 13
-20 -2 -66 -50 -79 -83 -109 -124 -159 -216 -153 -283 -243 -403 -493 -660
-81 -82 -172 -179 -202 -215 -57 -68 -141 -158 -325 -348 -219 -226 -486 -431
-746 -571 -90 -48 -236 -129 -324 -180 -217 -126 -325 -180 -490 -244 -170
-66 -291 -105 -450 -146 -129 -33 -174 -39 -193 -27 -19 12 -15 22 46 114 55
81 142 228 142 238 0 3 -28 -15 -63 -40 -112 -80 -276 -153 -622 -278 -149
-54 -212 -72 -330 -97 -131 -28 -294 -50 -300 -41 -3 4 10 27 27 51 116 159
308 459 308 482 0 2 -30 -11 -67 -29 -79 -37 -315 -122 -423 -152 -109 -30
-372 -92 -392 -92 -27 0 -22 24 14 69 108 133 133 168 179 241 28 45 48 84 46
87 -3 2 -14 0 -24 -6 -11 -5 -71 -17 -134 -26 -63 -10 -117 -19 -120 -21 -12
-7 -212 -35 -216 -30 -15 14 26 59 189 209 155 141 358 345 358 360 0 2 -21 0
-48 -4 -26 -4 -94 -8 -152 -9 -58 -1 -131 -5 -164 -9 -42 -5 -54 -4 -44 3 9 6
25 29 37 51 12 22 26 47 33 56 14 20 -25 72 -177 236 -60 65 -225 247 -365
403 -140 156 -280 312 -310 346 -30 33 -86 95 -123 137 -38 43 -75 77 -82 77
-22 0 -148 -123 -224 -219 -308 -391 -508 -778 -582 -1131 -31 -148 -32 -378
-2 -501 48 -190 163 -392 320 -559 144 -153 307 -270 545 -391 519 -263 1132
-389 1890 -389 484 0 1171 108 1663 261 332 104 767 265 995 368 63 29 160 73
215 98 491 223 1107 580 1528 886 419 304 887 749 1138 1082 454 602 634 1137
543 1617 -52 274 -237 534 -508 713 -198 131 -386 216 -625 285 -40 12 -79 24
-87 27 -7 2 -17 -5 -23 -16z m-82 -2366 c-11 -10 -56 34 -155 148 l-97 112
129 -127 c70 -70 126 -130 123 -133z"/>
<path d="M920 6719 c0 -73 341 -644 572 -957 109 -147 498 -595 827 -951 79
-86 187 -207 240 -268 53 -62 101 -113 107 -113 16 0 224 179 254 219 l25 33
-172 174 c-95 97 -181 191 -192 211 l-18 36 -7 -71 c-4 -40 -12 -72 -17 -72
-21 0 -57 26 -184 136 -206 176 -270 257 -377 482 -57 117 -85 163 -147 236
-280 330 -568 736 -627 882 -18 42 -21 45 -49 40 -72 -14 -153 -17 -192 -8
-39 9 -43 8 -43 -9z"/>
<path d="M3015 5645 c-355 -74 -405 -94 -405 -164 0 -27 519 -571 544 -571 4
0 6 6 6 13 0 7 16 37 36 67 60 91 143 264 165 347 16 58 21 104 20 190 0 63
-3 118 -6 123 -10 16 -78 30 -140 29 -33 0 -132 -16 -220 -34z"/>
<path d="M8846 4606 c-34 -27 -46 -31 -48 -20 -2 9 -65 -46 -168 -148 -178
-175 -391 -363 -572 -502 -226 -174 -210 -160 -189 -168 11 -4 27 -18 36 -31
18 -28 75 -193 75 -218 0 -17 -3 -17 -42 -3 -23 8 -85 22 -137 30 -52 8 -102
19 -111 24 -28 15 -30 47 -7 77 21 27 19 26 -48 -11 -74 -41 -137 -82 -195
-127 -19 -14 -141 -86 -270 -159 -129 -73 -269 -153 -310 -177 -114 -66 -434
-221 -627 -303 -201 -86 -198 -77 -54 -162 255 -151 580 -282 901 -363 57 -14
108 -29 112 -32 5 -2 -5 -20 -22 -39 -30 -35 -38 -54 -21 -54 5 0 12 -13 16
-29 4 -21 -5 -53 -34 -124 -50 -115 -61 -170 -61 -297 0 -111 15 -173 68 -274
68 -130 182 -219 327 -256 197 -49 374 0 520 144 166 164 231 423 163 646 -26
85 -61 152 -113 220 -61 79 -81 95 -168 135 -43 20 -77 39 -75 43 59 114 81
220 82 399 1 79 5 143 9 143 4 0 40 -8 80 -17 63 -16 128 -18 527 -18 496 0
556 5 715 56 115 37 276 126 338 187 82 81 135 224 122 331 -12 101 -26 144
-101 298 -113 236 -287 507 -439 682 -73 85 -116 119 -174 139 -49 17 -55 16
-105 -22z m-1411 -1512 c333 -83 395 -111 244 -107 -122 2 -431 89 -450 126
-11 19 -10 20 47 13 33 -4 104 -18 159 -32z m368 -847 c110 -51 194 -153 223
-271 14 -54 15 -74 6 -105 -16 -51 -84 -127 -128 -141 -59 -20 -141 -8 -219
30 -89 45 -154 125 -186 232 -21 69 -22 74 -5 140 10 46 13 75 7 87 -23 42 27
62 149 57 77 -2 106 -8 153 -29z"/>
<path d="M5690 2651 c-19 -10 -109 -45 -200 -76 -91 -32 -166 -59 -168 -60 -9
-8 251 -146 668 -355 170 -85 474 -207 680 -272 270 -85 281 -88 284 -75 14
50 56 234 56 243 0 7 -62 33 -137 59 -76 25 -213 80 -306 121 -92 41 -170 74
-174 74 -3 0 -42 18 -87 39 -44 22 -126 58 -181 79 -127 51 -213 91 -221 103
-3 5 -2 8 3 7 4 -2 10 1 12 7 2 5 -37 30 -87 55 -50 25 -91 51 -91 58 -1 16
-9 15 -51 -7z"/>
</g>
</svg>
